<?xml version="1.0" encoding="utf-8"?>
<!-- Generator: Adobe Illustrator 16.0.0, SVG Export Plug-In . SVG Version: 6.00 Build 0)  -->
<!DOCTYPE svg PUBLIC "-//W3C//DTD SVG 1.1//EN" "http://www.w3.org/Graphics/SVG/1.1/DTD/svg11.dtd">
<svg version="1.1" id="Layer_1" xmlns="http://www.w3.org/2000/svg" xmlns:xlink="http://www.w3.org/1999/xlink" x="0px" y="0px"
	 width="673px" height="656px" viewBox="0 0 673 656" enable-background="new 0 0 673 656" xml:space="preserve">
<g>
	<path fill="#B3DFFA" stroke="#B3DFFA" d="M881.001,769.999l-58-825l-5,543L881.001,769.999z"/>
	<path fill="#F8FFFF" stroke="#F8FFFF" d="M881.001,769.999l-63-282l38,226L881.001,769.999z"/>
	<path fill="#FFFFFF" stroke="#FFFFFF" d="M881.001,769.999l-25-56l-164,149.999L881.001,769.999z"/>
	<path fill="#F4F7FE" stroke="#F4F7FE" d="M692.001,863.998l164-149.999l-155-66.001L692.001,863.998z"/>
	<path fill="#DEECF6" stroke="#DEECF6" d="M692.001,863.998l9-216l-141,16L692.001,863.998z"/>
	<path fill="#D2E6F1" stroke="#D2E6F1" d="M692.001,863.998l-132-200l-49,182L692.001,863.998z"/>
	<path fill="#ACD1E7" stroke="#ACD1E7" d="M692.001,863.998l-181-18l-409,19L692.001,863.998z"/>
	<path fill="#B8D9EC" stroke="#B8D9EC" d="M511.001,845.998l49-182l-151-9L511.001,845.998z"/>
	<path fill="#AFD3E8" stroke="#AFD3E8" d="M511.001,845.998l-102-191l19,188L511.001,845.998z"/>
	<path fill="#9BC3E0" stroke="#9BC3E0" d="M511.001,845.998l-83-3l-326,22L511.001,845.998z"/>
	<path fill="#9DC7E2" stroke="#9DC7E2" d="M428.001,842.998l-19-188l-126-24L428.001,842.998z"/>
	<path fill="#94BCDC" stroke="#94BCDC" d="M428.001,842.998l-145-212l-68,209L428.001,842.998z"/>
	<path fill="#8BB0D4" stroke="#8BB0D4" d="M428.001,842.998l-213-3l-113,25L428.001,842.998z"/>
	<path fill="#83A3CA" stroke="#83A3CA" d="M215.001,839.998l68-209l-208,58L215.001,839.998z"/>
	<path fill="#8095C0" stroke="#8095C0" d="M215.001,839.998l-140-151l27,176L215.001,839.998z"/>
	<path fill="#8080AF" stroke="#8080AF" d="M102.001,864.998l-27-176l-157,99L102.001,864.998z"/>
	<path fill="#7F80A5" stroke="#7F80A5" d="M-81.999,787.998l157-99l-143,9L-81.999,787.998z"/>
	<path fill="#637A9C" stroke="#637A9C" d="M-81.999,787.998l14-90l-13-500L-81.999,787.998z"/>
	<path fill="#1F4F8B" stroke="#1F4F8B" d="M-81.999,787.998l1-590l-34-244L-81.999,787.998z"/>
	<path fill="#EEFBFF" stroke="#EEFBFF" d="M856.001,713.999l-38-226l-117,159.999L856.001,713.999z"/>
	<path fill="#D3F0FD" stroke="#D3F0FD" d="M701.001,647.998l117-159.999l-122,43.999L701.001,647.998z"/>
	<path fill="#D0EAF6" stroke="#D0EAF6" d="M701.001,647.998l-5-116l-136,132L701.001,647.998z"/>
	<path fill="#B3E0F1" stroke="#B3E0F1" d="M560.001,663.998l136-132l-195-58.999L560.001,663.998z"/>
	<path fill="#A5D6EB" stroke="#A5D6EB" d="M560.001,663.998l-59-190.999l-92,181.999L560.001,663.998z"/>
	<path fill="#82C4E6" stroke="#82C4E6" d="M409.001,654.998l92-181.999l-164-13.001L409.001,654.998z"/>
	<path fill="#83BEDF" stroke="#83BEDF" d="M409.001,654.998l-72-195l-54,171L409.001,654.998z"/>
	<path fill="#68AEDB" stroke="#68AEDB" d="M283.001,630.998l54-171l-83,1L283.001,630.998z"/>
	<path fill="#629DCB" stroke="#629DCB" d="M283.001,630.998l-29-170l-193,60L283.001,630.998z"/>
	<path fill="#7095C1" stroke="#7095C1" d="M283.001,630.998l-222-110l14,168L283.001,630.998z"/>
	<path fill="#7680AD" stroke="#7680AD" d="M75.001,688.998l-14-168l-129,177L75.001,688.998z"/>
	<path fill="#667BA8" stroke="#667BA8" d="M-67.999,697.998l129-177l-78-20L-67.999,697.998z"/>
	<path fill="#456BA0" stroke="#456BA0" d="M-67.999,697.998l51-197l-64-303L-67.999,697.998z"/>
	<path fill="#92B2DF" stroke="#92B2DF" d="M818.001,487.999l5-543l-34,227L818.001,487.999z"/>
	<path fill="#A7D5F6" stroke="#A7D5F6" d="M818.001,487.999l-29-316l6,237L818.001,487.999z"/>
	<path fill="#B5E0FE" stroke="#B5E0FE" d="M818.001,487.999l-23-79l-101,5L818.001,487.999z"/>
	<path fill="#BAE3FD" stroke="#BAE3FD" d="M818.001,487.999l-124-74l2,117.999L818.001,487.999z"/>
	<path fill="#A3D6F4" stroke="#A3D6F4" d="M696.001,531.998l-2-117.999l-193,59L696.001,531.998z"/>
	<path fill="#7FC2EB" stroke="#7FC2EB" d="M501.001,472.999l193-59l-198-104L501.001,472.999z"/>
	<path fill="#5DAFE1" stroke="#5DAFE1" d="M501.001,472.999l-5-163l-73-13L501.001,472.999z"/>
	<path fill="#5FAFE2" stroke="#5FAFE2" d="M501.001,472.999l-78-176l-86,163L501.001,472.999z"/>
	<path fill="#459CD7" stroke="#459CD7" d="M337.001,459.998l86-163l-123,32L337.001,459.998z"/>
	<path fill="#4A9DD8" stroke="#4A9DD8" d="M337.001,459.998l-37-131l-46,132L337.001,459.998z"/>
	<path fill="#3D8BCC" stroke="#3D8BCC" d="M254.001,460.998l46-132l-162,86L254.001,460.998z"/>
	<path fill="#4585C3" stroke="#4585C3" d="M254.001,460.998l-116-46l-77,106L254.001,460.998z"/>
	<path fill="#3D6CB3" stroke="#3D6CB3" d="M61.001,520.998l77-106l-151-31L61.001,520.998z"/>
	<path fill="#466BAB" stroke="#466BAB" d="M61.001,520.998l-74-137l-4,117L61.001,520.998z"/>
	<path fill="#29589A" stroke="#29589A" d="M-16.999,500.998l4-117l-68-186L-16.999,500.998z"/>
	<path fill="#8BBFEC" stroke="#8BBFEC" d="M795.001,408.999l-6-237l-132,87L795.001,408.999z"/>
	<path fill="#95CBF2" stroke="#95CBF2" d="M795.001,408.999l-138-150l37,155L795.001,408.999z"/>
	<path fill="#79BAE7" stroke="#79BAE7" d="M694.001,413.999l-37-155l-161,51L694.001,413.999z"/>
	<path fill="#5DA6DC" stroke="#5DA6DC" d="M496.001,309.999l161-51l-161-32V309.999L496.001,309.999z"/>
	<path fill="#499BD7" stroke="#499BD7" d="M496.001,309.999v-83l-78,33L496.001,309.999z"/>
	<path fill="#489CD8" stroke="#489CD8" d="M496.001,309.999l-78-50l5,37L496.001,309.999z"/>
	<path fill="#3C94D3" stroke="#3C94D3" d="M423.001,296.999l-5-37l-118,69L423.001,296.999z"/>
	<path fill="#2B7AC4" stroke="#2B7AC4" d="M300.001,328.998l118-69l-146-164L300.001,328.998z"/>
	<path fill="#1E63B3" stroke="#1E63B3" d="M300.001,328.998l-28-233l-89,76L300.001,328.998z"/>
	<path fill="#1961B2" stroke="#1961B2" d="M300.001,328.998l-117-157l-56,22L300.001,328.998z"/>
	<path fill="#2271BC" stroke="#2271BC" d="M300.001,328.998l-173-135l11,221L300.001,328.998z"/>
	<path fill="#225DAC" stroke="#225DAC" d="M138.001,414.998l-11-221l-140,190L138.001,414.998z"/>
	<path fill="#144397" stroke="#144397" d="M-12.999,383.998l140-190l-208,4L-12.999,383.998z"/>
	<path fill="#8E83BC" stroke="#8E83BC" d="M789.001,171.999l34-227l-41,58L789.001,171.999z"/>
	<path fill="#8788C4" stroke="#8788C4" d="M789.001,171.999l-7-169l-53,41L789.001,171.999z"/>
	<path fill="#819BD2" stroke="#819BD2" d="M789.001,171.999l-60-128l-72,215L789.001,171.999z"/>
	<path fill="#7084C2" stroke="#7084C2" d="M657.001,258.999l72-215l-152-22L657.001,258.999z"/>
	<path fill="#618FC9" stroke="#618FC9" d="M657.001,258.999l-80-237l-81,205L657.001,258.999z"/>
	<path fill="#4871B7" stroke="#4871B7" d="M496.001,226.999l81-205l-201,58L496.001,226.999z"/>
	<path fill="#3E7FC4" stroke="#3E7FC4" d="M496.001,226.999l-120-147l42,180L496.001,226.999z"/>
	<path fill="#2E67B4" stroke="#2E67B4" d="M418.001,259.999l-42-180l-104,16L418.001,259.999z"/>
	<path fill="#143A95" stroke="#143A95" d="M183.001,171.999l89-76l-171-38L183.001,171.999z"/>
	<path fill="#113894" stroke="#113894" d="M183.001,171.999l-82-114l26,136L183.001,171.999z"/>
	<path fill="#112786" stroke="#112786" d="M127.001,193.999l-26-136l-182,140L127.001,193.999z"/>
	<path fill="#111A73" stroke="#111A73" d="M-80.999,197.999l182-140l-178,24L-80.999,197.999z"/>
	<path fill="#10105F" stroke="#10105F" d="M-80.999,197.999l4-116l-38-128L-80.999,197.999z"/>
	<path fill="#877BA9" stroke="#877BA9" d="M782.001,2.999l41-58l-98-53L782.001,2.999z"/>
	<path fill="#8177AE" stroke="#8177AE" d="M782.001,2.999l-57-111l4,152L782.001,2.999z"/>
	<path fill="#726FA9" stroke="#726FA9" d="M729.001,43.999l-4-152l-148,130L729.001,43.999z"/>
	<path fill="#676A9C" stroke="#676A9C" d="M577.001,21.999l148-130l-150,10L577.001,21.999z"/>
	<path fill="#4C5D94" stroke="#4C5D94" d="M577.001,21.999l-2-120l-186-16L577.001,21.999z"/>
	<path fill="#3D539C" stroke="#3D539C" d="M577.001,21.999l-188-136l-13,194L577.001,21.999z"/>
	<path fill="#2A4399" stroke="#2A4399" d="M376.001,79.999l13-194l-117,210L376.001,79.999z"/>
	<path fill="#213C86" stroke="#213C86" d="M272.001,95.999l117-210l-144-21L272.001,95.999z"/>
	<path fill="#142783" stroke="#142783" d="M272.001,95.999l-27-231l-144,193L272.001,95.999z"/>
	<path fill="#0D156C" stroke="#0D156C" d="M101.001,57.999l144-193l-206,98L101.001,57.999z"/>
	<path fill="#0F0469" stroke="#0F0469" d="M101.001,57.999l-62-95l-116,119L101.001,57.999z"/>
	<path fill="#0E0055" stroke="#0E0055" d="M-76.999,81.999l116-119l-154-9L-76.999,81.999z"/>
	<path fill="#3C5484" stroke="#3C5484" d="M725.001-108.001l-480-27l144,21L725.001-108.001z"/>
	<path fill="#58648E" stroke="#58648E" d="M725.001-108.001l-336-6l186,16L725.001-108.001z"/>
	<path fill="#0D0458" stroke="#0D0458" d="M245.001-135.001l-360,89l154,9L245.001-135.001z"/>
</g>
<rect opacity="0.6" enable-background="new    " width="673" height="656.104"/>
</svg>
