<?xml version="1.0" encoding="utf-8"?>
<!-- Generator: Adobe Illustrator 16.0.0, SVG Export Plug-In . SVG Version: 6.00 Build 0)  -->
<!DOCTYPE svg PUBLIC "-//W3C//DTD SVG 1.1//EN" "http://www.w3.org/Graphics/SVG/1.1/DTD/svg11.dtd">
<svg version="1.1" id="Layer_1" xmlns="http://www.w3.org/2000/svg" xmlns:xlink="http://www.w3.org/1999/xlink" x="0px" y="0px"
	 width="595px" height="842px" viewBox="0 0 595 842" enable-background="new 0 0 595 842" xml:space="preserve">
<g>
	<path fill="#FFFFFF" d="M304.406,0.518c-154.903,0-280.482,125.578-280.482,280.481c0,49.823,13.384,96.414,36.149,136.948
		c3.776,6.73,7.751,13.356,12.058,19.743L304.406,841.96L536.68,437.689c3.578-5.301,6.665-10.903,9.847-16.444l2.213-3.299
		c22.752-40.535,36.146-87.125,36.146-136.948C584.886,126.096,459.309,0.518,304.406,0.518L304.406,0.518z M304.406,140.752
		c77.45,0,140.233,62.781,140.233,140.233c0,77.452-62.797,140.234-140.233,140.234c-77.453,0-140.234-62.796-140.234-140.234
		C164.172,203.533,226.954,140.752,304.406,140.752z"/>
	<path fill="#E6E6E6" d="M304.413,841.948V421.22c77.434-0.005,140.228-62.785,140.228-140.234
		c0-77.45-62.778-140.229-140.228-140.233V0.518c154.898,0.004,280.473,125.581,280.473,280.481
		c0,49.823-13.396,96.414-36.146,136.948l-2.213,3.299c-3.182,5.541-6.269,11.145-9.847,16.443L304.413,841.948z"/>
	<path fill="#E6E6E6" d="M304.406,79.667c-111.183,0-201.319,90.137-201.319,201.319c0,111.166,90.137,201.319,201.319,201.319
		c111.166,0,201.317-90.153,201.317-201.319C505.725,169.804,415.572,79.667,304.406,79.667L304.406,79.667z M304.406,140.75
		c77.435,0,140.234,62.787,140.234,140.234c0,77.438-62.801,140.236-140.234,140.236c-77.449,0-140.236-62.798-140.236-140.236
		C164.17,203.538,226.957,140.75,304.406,140.75z"/>
	<path fill="#CCCCCC" d="M304.413,482.305c111.162-0.003,201.312-90.156,201.312-201.32c0-111.179-90.148-201.315-201.312-201.318
		v61.084c77.434,0.003,140.229,62.79,140.229,140.234c0,77.435-62.795,140.231-140.229,140.236V482.305L304.413,482.305z"/>
	<g>
		<path fill="#FFFFFF" d="M167.709,256.437c2.348,0.546,6.694,2.886,8.724,4.063l59.514,31.342
			c19.957,9.865,42.932,23.143,63.53,33.384c5.03,2.503,3.66,3.982,9.518,0.33l54.223-27.211c3.641-1.799,5.937-3.31,9.648-5.157
			c3.642-1.813,6.928-3.359,10.327-5.155c0,18.414-0.499,37.497-0.025,55.825c0.409,15.924,12.648,26.867,28.979,26.867v-14.791
			c-7.767,0-14.141-5.21-14.141-14.118v-60.505c0-2.292,6.711-5.347,9.877-6.95l33.22-17.925
			c-1.304-1.778-21.145-11.888-24.68-13.68l-94.508-49.515c-22.824-11.376-12.269-11.334-34.568-0.224l-17.292,8.955
			c-2.837,1.475-5.082,2.89-8.295,4.49l-34.339,18.156c-2.999,1.611-5.705,2.771-8.542,4.245c-2.836,1.476-5.082,2.89-8.295,4.491
			c-3.321,1.655-5.69,2.778-8.813,4.647C196.686,241.038,169.556,253.92,167.709,256.437z"/>
		<path fill="#FFFFFF" d="M304.406,384.844c1.424,0,41.005-19.973,45.569-22.404c5.692-3.028,15.24-9.989,18.005-15.639
			c2.614-5.345,1.068-25.367,1.068-33.22c-5.432,1.264-62.294,30.621-64.644,30.621c-1.171,0-28.217-13.533-32.094-15.386
			c-2.844-1.358-5.021-2.217-7.865-3.577c-6.264-2.994-19.658-10.487-24.686-11.658c0,6.892-0.887,28.179,0.396,33.219
			c1.025,4.024,3.563,8.231,5.847,10.971c5.104,6.122,25.951,13.422,34.141,17.008C282.955,376.008,302.891,384.844,304.406,384.844
			z"/>
	</g>
	<g>
		<path fill="#E6E6E6" d="M304.413,327.747c0.921-0.021,2.104-0.646,4.581-2.19l54.223-27.212c3.641-1.799,5.937-3.309,9.648-5.156
			c3.644-1.813,6.928-3.359,10.327-5.155c0,18.414-0.499,37.497-0.025,55.825c0.409,15.924,12.648,26.868,28.979,26.868v-14.792
			c-7.767,0-14.141-5.21-14.141-14.118v-60.505c0-2.292,6.711-5.348,9.875-6.95l33.222-17.925
			c-1.306-1.778-21.145-11.888-24.68-13.68l-94.508-49.515c-11.441-5.703-14.495-8.535-17.501-8.544V327.747z"/>
		<path fill="#E6E6E6" d="M304.413,384.842c1.504-0.042,41.002-19.974,45.563-22.403c5.692-3.028,15.24-9.989,18.007-15.638
			c2.612-5.346,1.066-25.369,1.066-33.221c-5.428,1.263-62.216,30.58-64.637,30.62L304.413,384.842L304.413,384.842z"/>
	</g>
</g>
</svg>
