<?xml version="1.0" encoding="utf-8"?>
<!-- Generator: Adobe Illustrator 16.0.0, SVG Export Plug-In . SVG Version: 6.00 Build 0)  -->
<!DOCTYPE svg PUBLIC "-//W3C//DTD SVG 1.1//EN" "http://www.w3.org/Graphics/SVG/1.1/DTD/svg11.dtd">
<svg version="1.1" id="Layer_1" xmlns="http://www.w3.org/2000/svg" xmlns:xlink="http://www.w3.org/1999/xlink" x="0px" y="0px"
	 width="39.687px" height="58.667px" viewBox="0 26.333 39.687 58.667" enable-background="new 0 26.333 39.687 58.667"
	 xml:space="preserve">
<g id="Layer_x0020_1">
	<g id="_342514464">
		<path fill="#4A87EE" d="M19.843,26.525c-10.756,0-19.478,8.72-19.478,19.478c0,3.455,0.925,6.696,2.511,9.51
			c0.263,0.467,0.536,0.925,0.838,1.372l16.129,28.072l16.129-28.072c0.252-0.37,0.467-0.76,0.684-1.139l0.154-0.234
			c1.574-2.813,2.51-6.046,2.51-9.51C39.32,35.246,30.598,26.525,19.843,26.525z M19.843,36.259c5.374,0,9.735,4.36,9.735,9.734
			c0,5.375-4.361,9.733-9.735,9.733c-5.373,0-9.734-4.358-9.734-9.733C10.109,40.619,14.47,36.259,19.843,36.259z"/>
		<path fill="#2F70E0" d="M19.843,84.958V55.747c5.374,0,9.735-4.361,9.735-9.734c0-5.374-4.361-9.734-9.735-9.734v-9.734
			c10.754,0,19.477,8.722,19.477,19.478c0,3.456-0.934,6.696-2.51,9.51c-0.303,0.448-0.537,0.924-0.838,1.371L19.844,84.979
			L19.843,84.958L19.843,84.958z"/>
		<g>
			<g>
				<path fill="#5F93ED" d="M19.843,29.084c-9.345,0-16.918,7.573-16.918,16.918c0,9.345,7.574,16.917,16.918,16.917
					c9.344,0,16.917-7.572,16.917-16.917C36.76,36.658,29.187,29.084,19.843,29.084z M19.843,34.215
					c-6.511,0-11.788,5.275-11.788,11.789c0,6.512,5.275,11.787,11.788,11.787c6.511,0,11.788-5.275,11.788-11.787
					C31.631,39.491,26.354,34.215,19.843,34.215z"/>
				<path fill="#3875DE" d="M19.843,62.921c9.344,0,16.917-7.573,16.917-16.917c0-9.346-7.573-16.919-16.917-16.919v5.131
					c6.511,0,11.788,5.275,11.788,11.789c0,6.512-5.276,11.787-11.788,11.787V62.921z"/>
			</g>
			<circle fill="#FFFFFF" cx="19.843" cy="46.002" r="14.552"/>
		</g>
		<g>
			<path fill="#FF9900" d="M8.279,43.87c0.194,0.049,0.564,0.244,0.739,0.342l5.034,2.647c1.684,0.837,3.631,1.957,5.373,2.823
				c0.429,0.213,0.311,0.34,0.809,0.029l4.585-2.298c0.312-0.154,0.507-0.282,0.817-0.438c0.312-0.155,0.583-0.281,0.876-0.438
				c0,1.558-0.04,3.174,0,4.721c0.039,1.343,1.07,2.27,2.452,2.27v-1.246c-0.652,0-1.197-0.438-1.197-1.198v-5.12
				c0-0.193,0.564-0.447,0.837-0.583l2.813-1.519c-0.107-0.146-1.791-1.003-2.084-1.158l-7.991-4.186
				c-1.927-0.964-1.041-0.954-2.92-0.019l-1.46,0.758c-0.244,0.127-0.429,0.244-0.702,0.38l-2.9,1.539
				c-0.254,0.136-0.487,0.233-0.721,0.36c-0.244,0.125-0.428,0.244-0.701,0.379c-0.283,0.137-0.478,0.234-0.75,0.39
				c-0.428,0.252-2.726,1.342-2.881,1.558L8.279,43.87z"/>
			<path fill="#FF9900" d="M19.843,54.725c0.117,0,3.466-1.693,3.854-1.896c0.476-0.254,1.285-0.847,1.519-1.325
				c0.224-0.448,0.088-2.142,0.088-2.813c-0.458,0.107-5.267,2.59-5.471,2.59c-0.097,0-2.385-1.149-2.715-1.305
				c-0.244-0.116-0.429-0.185-0.662-0.302c-0.526-0.253-1.666-0.887-2.084-0.982c0,0.583-0.078,2.385,0.03,2.813
				c0.087,0.341,0.302,0.7,0.497,0.925c0.429,0.516,2.191,1.138,2.891,1.44c0.234,0.107,1.928,0.847,2.054,0.847L19.843,54.725
				L19.843,54.725z"/>
		</g>
		<g>
			<path fill="#FF9100" d="M19.843,49.896c0.078,0,0.176-0.058,0.39-0.185l4.585-2.298c0.312-0.154,0.507-0.282,0.817-0.438
				c0.312-0.156,0.583-0.282,0.876-0.438c0,1.558-0.04,3.174,0,4.722c0.039,1.342,1.07,2.269,2.452,2.269v-1.246
				c-0.652,0-1.197-0.438-1.197-1.198v-5.119c0-0.194,0.564-0.448,0.837-0.584l2.813-1.518c-0.107-0.146-1.791-1.003-2.084-1.159
				l-7.991-4.185c-0.963-0.487-1.227-0.72-1.479-0.72v12.098L19.843,49.896L19.843,49.896z"/>
			<path fill="#FF9100" d="M19.843,54.725c0.127,0,3.466-1.693,3.854-1.896c0.476-0.254,1.285-0.847,1.519-1.325
				c0.224-0.448,0.088-2.142,0.088-2.813c-0.458,0.107-5.257,2.59-5.471,2.59v3.437L19.843,54.725z"/>
		</g>
	</g>
</g>
</svg>
